<svg width="1024" height="1024" viewBox="0 0 1024 1024" xmlns="http://www.w3.org/2000/svg">
  <defs>
    <linearGradient id="bg" x1="0" y1="0" x2="0" y2="1">
      <stop offset="0" stop-color="#1b1b1e"/>
      <stop offset="1" stop-color="#0a0a0c"/>
    </linearGradient>
  </defs>

  <!-- squircle body -->
  <rect x="64" y="64" width="896" height="896" rx="205" ry="205" fill="url(#bg)"/>
  <rect x="64" y="64" width="896" height="896" rx="205" ry="205" fill="none"
        stroke="#ffffff" stroke-opacity="0.08" stroke-width="2"/>

  <!-- hardware notch -->
  <path d="M 372 64 L 652 64 L 652 122 Q 652 158 616 158 L 408 158 Q 372 158 372 122 Z" fill="#000000"/>

  <!-- minimal mono sparkle -->
  <path d="M 512 336 Q 512 512 688 512 Q 512 512 512 688 Q 512 512 336 512 Q 512 512 512 336 Z"
        fill="#ffffff"/>
  <path d="M 726 356 Q 726 420 790 420 Q 726 420 726 484 Q 726 420 662 420 Q 726 420 726 356 Z"
        fill="#ffffff" fill-opacity="0.85"/>
</svg>
